<?xml version="1.0" encoding="UTF-8" standalone="no"?>
<!DOCTYPE svg PUBLIC "-//W3C//DTD SVG 1.1//EN" "http://www.w3.org/Graphics/SVG/1.1/DTD/svg11.dtd">
<svg xmlns="http://www.w3.org/2000/svg" version="1.1" viewBox="0 0 591 591">
<g stroke-width="2.00" fill="none" stroke-linecap="butt">
<path stroke="#b2a8a4" stroke-opacity="0.957" vector-effect="non-scaling-stroke" d="
  M 385.29 191.00
  L 383.25 193.46"
/>
<path stroke="#b2a8a4" stroke-opacity="0.957" vector-effect="non-scaling-stroke" d="
  M 376.71 190.25
  L 378.00 185.79"
/>
<path stroke="#b2a8a4" stroke-opacity="0.957" vector-effect="non-scaling-stroke" d="
  M 248.46 262.50
  Q 251.33 262.27 250.46 259.75"
/>
<path stroke="#b9afab" stroke-opacity="0.992" vector-effect="non-scaling-stroke" d="
  M 346.00 259.29
  Q 346.01 261.09 344.85 262.39
  A 1.37 0.94 -33.1 0 0 344.50 263.24
  L 344.64 266.45
  A 1.16 1.11 65.4 0 1 344.35 267.29
  Q 342.86 268.90 344.76 269.01
  Q 345.28 269.04 346.16 268.66
  Q 348.35 267.72 348.44 270.56
  Q 348.48 272.07 349.29 272.50"
/>
<path stroke="#b9afab" stroke-opacity="0.992" vector-effect="non-scaling-stroke" d="
  M 331.75 265.71
  L 333.02 266.12
  A 1.00 0.89 -53.2 0 0 333.90 265.94
  Q 335.23 264.88 336.50 263.75
  Q 337.47 262.89 337.21 262.00"
/>
<path stroke="#bcb2ae" vector-effect="non-scaling-stroke" d="
  M 28.25 349.96
  Q 28.06 348.30 29.69 348.19
  Q 31.16 348.08 31.81 347.24
  A 1.77 0.92 -66.2 0 1 32.53 346.66
  Q 38.30 344.76 41.69 341.19
  Q 43.17 339.63 41.45 339.91
  Q 41.16 339.96 40.61 340.23
  Q 39.21 340.91 35.83 341.23
  A 1.27 1.26 -85.4 0 0 34.72 342.18
  Q 34.46 343.21 33.41 343.71
  Q 32.19 344.27 31.78 344.64
  Q 29.89 346.32 28.00 348.00
  Q 27.37 348.56 27.50 350.21"
/>
<path stroke="#cec5c2" vector-effect="non-scaling-stroke" d="
  M 194.25 332.54
  Q 194.20 333.18 193.69 333.24
  A 0.73 0.56 0.6 0 0 193.09 333.69
  Q 192.79 334.92 192.06 335.88
  Q 191.52 336.59 190.13 337.15
  Q 186.92 338.45 184.52 341.06
  A 1.58 1.26 -68.8 0 1 183.70 341.54
  Q 180.98 342.05 178.42 340.81
  Q 176.77 340.00 175.19 340.93
  Q 173.33 342.03 171.46 341.00"
/>
<path stroke="#bbb1ae" stroke-opacity="0.992" vector-effect="non-scaling-stroke" d="
  M 175.00 336.71
  Q 175.49 336.77 175.85 337.06
  A 0.75 0.60 47.3 0 0 176.63 337.18
  Q 178.72 335.92 182.31 333.06
  Q 183.08 332.46 182.25 332.04"
/>
<path stroke="#b5aaa7" stroke-opacity="0.992" vector-effect="non-scaling-stroke" d="
  M 472.71 193.72
  Q 473.03 195.62 472.95 193.35
  A 0.23 0.22 81.3 0 0 472.67 193.13
  Q 471.13 193.58 470.11 194.80
  Q 469.76 195.22 470.32 195.24
  Q 471.89 195.29 472.62 193.71
  Q 472.69 193.57 472.71 193.72"
/>
<path stroke="#b5aaa7" stroke-opacity="0.992" vector-effect="non-scaling-stroke" d="
  M 29.42 334.28
  Q 30.74 333.82 29.80 333.76
  A 0.74 0.69 -62.2 0 0 29.28 333.94
  Q 25.49 337.19 29.21 334.39
  Q 29.31 334.31 29.42 334.28"
/>
<path stroke="#b5aaa7" stroke-opacity="0.992" vector-effect="non-scaling-stroke" d="
  M 39.43 336.95
  A 1.72 1.72 -73.9 0 1 38.07 337.70
  Q 36.97 337.74 37.63 338.42
  A 0.68 0.62 51.2 0 0 38.45 338.55
  L 39.93 337.55
  A 0.75 0.68 68.8 0 0 40.21 336.82
  Q 40.06 336.03 39.43 336.95"
/>
</g>
<path fill="#d4ccc9" d="
  M 558.69 126.69
  Q 561.46 123.40 565.07 121.86
  Q 566.69 121.17 568.11 121.64
  Q 569.54 122.12 570.93 123.23
  Q 572.39 124.41 571.61 126.11
  Q 567.86 134.27 559.01 137.02
  Q 557.98 137.33 557.18 137.98
  Q 555.93 138.97 555.52 139.15
  Q 552.08 140.64 550.66 137.15
  Q 549.71 134.81 551.89 133.84
  L 555.22 132.36
  A 1.15 1.02 -5.6 0 0 555.83 131.70
  Q 556.64 129.12 558.69 126.69
  Z"
/>
<path fill="#cfc7c3" d="
  M 511.45 131.30
  Q 515.59 126.10 521.28 124.62
  Q 524.66 123.74 525.40 126.76
  A 1.40 1.32 -40.0 0 1 525.29 127.70
  Q 524.14 130.03 522.14 131.51
  Q 520.69 132.58 517.61 133.31
  Q 515.20 133.87 512.79 134.45
  A 0.58 0.53 80.6 0 0 512.39 135.06
  Q 512.52 136.75 510.74 136.89
  Q 507.43 137.16 505.65 134.07
  A 0.53 0.53 59.2 0 1 505.83 133.35
  Q 508.48 131.76 510.52 131.75
  A 1.20 1.18 -70.4 0 0 511.45 131.30
  Z"
/>
<path fill="#cfc7c3" d="
  M 385.29 191.00
  L 383.25 193.46
  Q 378.70 194.40 376.71 190.25
  L 378.00 185.79
  Q 381.06 185.04 384.19 185.38
  A 1.08 1.04 25.1 0 0 385.04 185.09
  Q 392.13 178.26 402.06 177.37
  Q 405.38 177.07 407.18 179.19
  Q 408.52 180.76 407.88 182.69
  Q 407.41 184.14 406.19 185.12
  Q 404.53 186.46 404.44 186.54
  Q 401.59 189.17 398.50 189.75
  Q 394.56 190.49 386.47 190.08
  Q 385.96 190.06 385.71 190.25
  Q 385.38 190.52 385.29 191.00
  Z"
/>
<path fill="#c7bebb" fill-opacity="0.996" d="
  M 474.63 200.12
  Q 466.56 207.08 455.56 207.31
  A 1.14 1.08 -69.4 0 0 454.74 207.71
  Q 450.77 212.39 445.94 208.31
  Q 443.22 206.02 444.28 203.26
  Q 445.04 201.28 447.70 200.42
  Q 450.31 199.57 453.07 199.35
  A 0.86 0.85 -79.7 0 0 453.77 198.86
  Q 457.99 189.85 468.25 186.50
  Q 471.97 185.29 474.68 185.51
  A 1.73 1.36 60.9 0 1 475.57 185.88
  L 479.53 189.01
  A 2.72 2.59 23.8 0 1 480.54 191.44
  Q 480.13 194.43 478.49 196.50
  Q 477.73 197.44 474.63 200.12
  Z
  M 472.71 193.72
  Q 473.03 195.62 472.95 193.35
  A 0.23 0.22 81.3 0 0 472.67 193.13
  Q 471.13 193.58 470.11 194.80
  Q 469.76 195.22 470.32 195.24
  Q 471.89 195.29 472.62 193.71
  Q 472.69 193.57 472.71 193.72
  Z"
/>
<path fill="#938683" fill-opacity="0.914" d="
  M 378.00 185.79
  L 376.71 190.25
  Q 372.61 186.66 378.00 185.79
  Z"
/>
<path fill="#938683" fill-opacity="0.914" d="
  M 385.29 191.00
  Q 386.32 195.05 383.25 193.46
  L 385.29 191.00
  Z"
/>
<path fill="#a29693" fill-opacity="0.984" d="
  M 472.62 193.71
  Q 471.89 195.29 470.32 195.24
  Q 469.76 195.22 470.11 194.80
  Q 471.13 193.58 472.67 193.13
  A 0.23 0.22 81.3 0 1 472.95 193.35
  Q 473.03 195.62 472.71 193.72
  Q 472.69 193.57 472.62 193.71
  Z"
/>
<path fill="#cfc7c3" d="
  M 248.46 262.50
  Q 251.33 262.27 250.46 259.75
  Q 253.41 258.70 257.19 259.37
  A 1.44 1.43 -71.0 0 0 258.72 258.62
  Q 259.41 257.31 260.71 256.48
  Q 266.08 253.04 272.25 251.51
  Q 276.06 250.57 279.19 252.06
  Q 281.16 253.00 281.33 254.85
  Q 281.46 256.20 280.25 257.73
  Q 277.45 261.26 273.49 262.89
  Q 271.88 263.55 270.67 263.58
  L 258.81 263.85
  A 0.48 0.39 -4.6 0 0 258.33 264.31
  L 258.53 265.45
  A 0.79 0.60 71.9 0 1 258.27 266.21
  Q 253.02 269.50 249.93 264.25
  Q 249.74 263.92 249.24 263.60
  Q 248.65 263.23 248.46 262.50
  Z"
/>
<path fill="#cfc7c3" d="
  M 346.00 259.29
  Q 346.01 261.09 344.85 262.39
  A 1.37 0.94 -33.1 0 0 344.50 263.24
  L 344.64 266.45
  A 1.16 1.11 65.4 0 1 344.35 267.29
  Q 342.86 268.90 344.76 269.01
  Q 345.28 269.04 346.16 268.66
  Q 348.35 267.72 348.44 270.56
  Q 348.48 272.07 349.29 272.50
  Q 347.84 274.43 345.06 276.06
  Q 338.11 280.14 331.00 281.25
  Q 330.44 281.34 328.55 280.92
  A 0.59 0.56 -73.3 0 0 327.90 281.29
  Q 327.30 282.87 326.06 283.31
  Q 321.79 284.84 319.15 282.32
  Q 317.33 280.58 317.23 278.26
  Q 317.09 275.28 320.75 274.27
  Q 323.37 273.55 326.07 273.14
  A 0.94 0.94 -82.1 0 0 326.77 272.61
  Q 328.65 268.73 331.75 265.71
  L 333.02 266.12
  A 1.00 0.89 -53.2 0 0 333.90 265.94
  Q 335.23 264.88 336.50 263.75
  Q 337.47 262.89 337.21 262.00
  Q 341.28 259.60 346.00 259.29
  Z"
/>
<path fill="#a29693" fill-opacity="0.984" d="
  M 346.00 259.29
  Q 348.24 258.90 349.79 260.50
  Q 348.85 266.19 350.21 271.75
  L 349.29 272.50
  Q 348.48 272.07 348.44 270.56
  Q 348.35 267.72 346.16 268.66
  Q 345.28 269.04 344.76 269.01
  Q 342.86 268.90 344.35 267.29
  A 1.16 1.11 65.4 0 0 344.64 266.45
  L 344.50 263.24
  A 1.37 0.94 -33.1 0 1 344.85 262.39
  Q 346.01 261.09 346.00 259.29
  Z"
/>
<path fill="#938683" fill-opacity="0.914" d="
  M 250.46 259.75
  Q 251.33 262.27 248.46 262.50
  Q 247.36 259.87 250.46 259.75
  Z"
/>
<path fill="#938683" fill-opacity="0.914" d="
  M 349.79 260.50
  L 353.15 263.39
  A 1.33 1.03 -77.0 0 1 353.55 264.25
  Q 353.90 268.84 350.21 271.75
  Q 348.85 266.19 349.79 260.50
  Z"
/>
<path fill="#a29693" fill-opacity="0.984" d="
  M 337.21 262.00
  Q 337.47 262.89 336.50 263.75
  Q 335.23 264.88 333.90 265.94
  A 1.00 0.89 -53.2 0 1 333.02 266.12
  L 331.75 265.71
  Q 334.02 263.19 337.21 262.00
  Z"
/>
<path fill="#c7bebb" fill-opacity="0.996" d="
  M 28.25 349.96
  Q 28.06 348.30 29.69 348.19
  Q 31.16 348.08 31.81 347.24
  A 1.77 0.92 -66.2 0 1 32.53 346.66
  Q 38.30 344.76 41.69 341.19
  Q 43.17 339.63 41.45 339.91
  Q 41.16 339.96 40.61 340.23
  Q 39.21 340.91 35.83 341.23
  A 1.27 1.26 -85.4 0 0 34.72 342.18
  Q 34.46 343.21 33.41 343.71
  Q 32.19 344.27 31.78 344.64
  Q 29.89 346.32 28.00 348.00
  Q 27.37 348.56 27.50 350.21
  L 23.03 350.35
  A 1.07 0.89 7.7 0 0 22.13 350.91
  Q 21.42 352.58 19.86 353.00
  Q 15.06 354.31 12.56 350.44
  Q 10.64 347.46 12.87 344.57
  A 1.55 1.25 -73.2 0 1 13.66 344.03
  L 20.95 342.27
  A 0.88 0.79 -0.2 0 0 21.57 341.71
  Q 22.14 339.86 23.32 338.32
  Q 29.81 329.83 40.25 328.50
  Q 42.29 328.24 43.89 329.35
  Q 44.98 330.11 46.73 331.43
  Q 48.74 332.95 48.25 335.50
  Q 47.49 339.43 42.98 342.99
  Q 36.42 348.17 28.25 349.96
  Z
  M 29.42 334.28
  Q 30.74 333.82 29.80 333.76
  A 0.74 0.69 -62.2 0 0 29.28 333.94
  Q 25.49 337.19 29.21 334.39
  Q 29.31 334.31 29.42 334.28
  Z
  M 39.43 336.95
  A 1.72 1.72 -73.9 0 1 38.07 337.70
  Q 36.97 337.74 37.63 338.42
  A 0.68 0.62 51.2 0 0 38.45 338.55
  L 39.93 337.55
  A 0.75 0.68 68.8 0 0 40.21 336.82
  Q 40.06 336.03 39.43 336.95
  Z"
/>
<path fill="#d4ccc9" d="
  M 194.25 332.54
  Q 194.20 333.18 193.69 333.24
  A 0.73 0.56 0.6 0 0 193.09 333.69
  Q 192.79 334.92 192.06 335.88
  Q 191.52 336.59 190.13 337.15
  Q 186.92 338.45 184.52 341.06
  A 1.58 1.26 -68.8 0 1 183.70 341.54
  Q 180.98 342.05 178.42 340.81
  Q 176.77 340.00 175.19 340.93
  Q 173.33 342.03 171.46 341.00
  L 175.00 336.71
  Q 175.49 336.77 175.85 337.06
  A 0.75 0.60 47.3 0 0 176.63 337.18
  Q 178.72 335.92 182.31 333.06
  Q 183.08 332.46 182.25 332.04
  Q 186.59 330.36 189.06 330.06
  Q 192.14 329.70 194.25 332.54
  Z"
/>
<path fill="#a29693" fill-opacity="0.984" d="
  M 182.25 332.04
  Q 183.08 332.46 182.31 333.06
  Q 178.72 335.92 176.63 337.18
  A 0.75 0.60 47.3 0 1 175.85 337.06
  Q 175.49 336.77 175.00 336.71
  Q 178.12 333.60 182.25 332.04
  Z"
/>
<path fill="#c7bebb" fill-opacity="0.996" d="
  M 194.25 332.54
  Q 195.72 333.15 196.70 334.35
  A 1.53 1.39 -67.3 0 1 197.02 335.25
  Q 197.08 338.80 195.69 340.44
  Q 188.69 348.72 177.50 351.50
  Q 174.36 352.28 172.00 352.06
  A 0.86 0.85 -69.1 0 0 171.22 352.41
  Q 168.28 356.46 163.81 354.19
  Q 158.48 351.48 161.67 346.36
  A 1.44 1.41 5.5 0 1 162.40 345.77
  Q 164.29 345.12 166.23 344.59
  Q 166.23 344.59 168.80 344.36
  Q 170.58 344.20 170.75 342.00
  Q 170.79 341.47 171.46 341.00
  Q 173.33 342.03 175.19 340.93
  Q 176.77 340.00 178.42 340.81
  Q 180.98 342.05 183.70 341.54
  A 1.58 1.26 -68.8 0 0 184.52 341.06
  Q 186.92 338.45 190.13 337.15
  Q 191.52 336.59 192.06 335.88
  Q 192.79 334.92 193.09 333.69
  A 0.73 0.56 0.6 0 1 193.69 333.24
  Q 194.20 333.18 194.25 332.54
  Z"
/>
<path fill="#a29693" fill-opacity="0.984" d="
  M 29.21 334.39
  Q 25.49 337.19 29.28 333.94
  A 0.74 0.69 -62.2 0 1 29.80 333.76
  Q 30.74 333.82 29.42 334.28
  Q 29.31 334.31 29.21 334.39
  Z"
/>
<path fill="#a29693" fill-opacity="0.984" d="
  M 39.43 336.95
  Q 40.06 336.03 40.21 336.82
  A 0.75 0.68 68.8 0 1 39.93 337.55
  L 38.45 338.55
  A 0.68 0.62 51.2 0 1 37.63 338.42
  Q 36.97 337.74 38.07 337.70
  A 1.72 1.72 -73.9 0 0 39.43 336.95
  Z"
/>
<path fill="#b1a6a1" d="
  M 28.25 349.96
  L 27.50 350.21
  Q 27.37 348.56 28.00 348.00
  Q 29.89 346.32 31.78 344.64
  Q 32.19 344.27 33.41 343.71
  Q 34.46 343.21 34.72 342.18
  A 1.27 1.26 -85.4 0 1 35.83 341.23
  Q 39.21 340.91 40.61 340.23
  Q 41.16 339.96 41.45 339.91
  Q 43.17 339.63 41.69 341.19
  Q 38.30 344.76 32.53 346.66
  A 1.77 0.92 -66.2 0 0 31.81 347.24
  Q 31.16 348.08 29.69 348.19
  Q 28.06 348.30 28.25 349.96
  Z"
/>
</svg>
