<?xml version="1.0" encoding="UTF-8" standalone="no"?>
<!-- Created with Inkscape (http://www.inkscape.org/) -->

<svg
   width="100"
   height="100"
   viewBox="0 0 26.458333 26.458334"
   version="1.1"
   id="svg40691"
   sodipodi:docname="support-donate.svg"
   inkscape:version="1.1.2 (b8e25be833, 2022-02-05)"
   xmlns:inkscape="http://www.inkscape.org/namespaces/inkscape"
   xmlns:sodipodi="http://sodipodi.sourceforge.net/DTD/sodipodi-0.dtd"
   xmlns="http://www.w3.org/2000/svg"
   xmlns:svg="http://www.w3.org/2000/svg">
  <sodipodi:namedview
     id="namedview40693"
     pagecolor="#ffffff"
     bordercolor="#666666"
     borderopacity="1.0"
     inkscape:pageshadow="2"
     inkscape:pageopacity="0.0"
     inkscape:pagecheckerboard="0"
     inkscape:document-units="mm"
     showgrid="false"
     units="px"
     inkscape:zoom="4.0718557"
     inkscape:cx="104.00663"
     inkscape:cy="61.028685"
     inkscape:window-width="1920"
     inkscape:window-height="1001"
     inkscape:window-x="-9"
     inkscape:window-y="-9"
     inkscape:window-maximized="1"
     inkscape:current-layer="layer1" />
  <defs
     id="defs40688" />
  <g
     inkscape:label="Warstwa 1"
     inkscape:groupmode="layer"
     id="layer1">
    <path
       fill="#ffffff"
       d="M 5.9328999,97.20202 A 16.867187,16.867187 0 0 1 -10.93429,114.06921 16.867187,16.867187 0 0 1 -27.80147,97.20202 16.867187,16.867187 0 0 1 -10.93429,80.33484 16.867187,16.867187 0 0 1 5.9328999,97.20202 Z M -18.31087,91.02929 q 0.6694,0.53711 1.64042,0.53182 0.69585,-0.003 0.72231,-0.003 2.39183,0.10583 4.78631,0.0159 0.94457,-0.0344 1.4340399,-0.28046 0.73819,-0.36777 1.07421,-1.09009 0.59796,-1.29381 -0.11906,-2.3442 -0.4736,-0.69586 -1.3255599,-1.04246 -0.81756,-0.33602 -1.73831,-0.24077 a 0.28839583,0.2936875 77.2 0 1 -0.30428,-0.18786 q -0.41804,-1.13771 -1.35731,-1.68275 -0.9181,-0.53446 -1.98966,-0.39423 -1.07157,0.14023 -1.78859,1.00807 -0.16669,0.19843 -0.44714,0.87312 -0.1958,0.46831 -0.52652,0.84667 -0.65617,0.75141 -0.65882,0.75671 -1.19062,1.8071 0.59796,3.2332 z M -2.5840401,90.4353 a 0.70379166,0.78316666 46.3 0 0 -1.05243,0.0323 0.70379166,0.78316666 46.3 0 0 -0.08,1.04989 0.70379166,0.78316666 46.3 0 0 1.05243,-0.0323 0.70379166,0.78316666 46.3 0 0 0.08,-1.0499 z M -22.01239,95.78915 q -0.77523,0.2196 -0.3175,1.11125 0.9816,1.91558 5.56154,11.30564 0.45773,0.93927 0.55298,1.04511 0.4154,0.45244 1.22767,0.41539 1.09537,-0.0476 6.2891399,-0.0635 0.0132,0 1.30969,0.0529 0.73554,0.0291 1.53988,-0.0741 a 0.67997916,0.69320832 10.3 0 0 0.52387,-0.37042 q 2.83104,-5.56948 5.56683,-11.23685 0.36248,-0.75142 0.53711,-1.24355 0.15875,-0.45243 -0.0423,-0.6985 -0.25136,-0.30691 -0.84667,-0.17462 a 0.31220833,0.31220833 0 0 1 -0.37306,-0.36777 q 0.16933,-0.83873 -0.65088,-1.21444 -1.64042,-0.75406 -3.17235,0.15346 -0.53182,0.3175 -1.10332,0.71173 a 0.25135416,0.254 39.2 0 1 -0.24606,0.0265 q -0.70114,-0.29104 -1.39435,-0.27517 -0.65352,0.0132 -0.66146,0.0132 -4.5323099,-0.14288 -8.8079799,0.0794 -0.48948,0.0238 -0.89165,-0.254 -1.40493,-0.97102 -2.9157,-0.77787 -0.69321,0.0873 -1.06892,0.50006 -0.42598,0.46831 -0.48154,1.17475 a 0.17727083,0.1825625 83.9 0 1 -0.13494,0.1614 z"
       id="path63800"
       style="strokeWidth:0.264583" />
    <path
       fill="#fefefe"
       d="M 10.95408,26.042702 A 12.953597,12.986056 9.7 0 1 0.37368079,11.059763 12.953597,12.986056 9.7 0 1 15.330104,0.44189225 12.953597,12.986056 9.7 0 1 25.910504,15.424831 12.953597,12.986056 9.7 0 1 10.95408,26.042702 Z m -1.3724527,-7.789382 0.06492,2.6881 q 0.0142,0.545734 0.5619657,0.45647 l 10.291871,-1.647349 a 0.36111828,0.36111828 0 0 0 0.304314,-0.357061 v -8.660752 q 0,-0.438211 -0.39358,-0.632972 Q 19.889731,9.8400758 19.220242,9.7670406 17.944155,9.6270569 16.68227,9.3937502 A 0.17853038,0.17244412 85 0 1 16.550401,9.2801392 Q 16.420561,8.9311939 16.17711,8.6715131 15.953947,8.4321201 15.485306,8.3124243 11.368963,7.2595002 7.2729079,6.1294842 6.5182113,5.9205226 6.0069649,6.535235 5.1467729,7.5698998 4.6679875,8.5092135 4.4143933,9.0082873 4.4204791,9.5621366 l 0.101438,8.4091864 a 0.32662945,0.3286582 88.8 0 0 0.3388018,0.322573 l 4.6194734,-0.139985 a 0.10143772,0.09738021 88.3 0 1 0.101438,0.09941 z"
       id="path988"
       style="strokeWidth:0.202875;fill:none" />
    <path
       fill="#37ad37"
       d="M 9.4801893,18.153911 4.8607169,18.293896 A 0.32662945,0.3286582 88.8 0 1 4.521915,17.971323 L 4.4204771,9.5621366 Q 4.4144217,9.0082873 4.6679854,8.5092135 5.1467709,7.5698998 6.0069624,6.535235 6.5182088,5.9205226 7.2729053,6.1294842 q 4.0960547,1.130016 8.2123977,2.1829401 0.468642,0.1196958 0.691805,0.3590888 0.243451,0.2596808 0.373291,0.6086261 a 0.17853038,0.17244412 85 0 0 0.13187,0.113611 q 1.261884,0.2333067 2.53797,0.3732904 0.66949,0.073035 1.190879,0.3327154 0.393579,0.194761 0.393579,0.632972 v 8.660752 a 0.36111828,0.36111828 0 0 1 -0.304313,0.357061 L 10.208513,21.39789 Q 9.6607503,21.48715 9.6465483,20.94142 l -0.06492,-2.6881 A 0.10143772,0.09738021 88.3 0 0 9.4801923,18.15391 Z M 7.7293753,8.7019444 q 1.0630671,0.4057508 2.128163,0.8115021 0.5173327,0.1967891 1.0549527,0.1420127 0.490958,-0.048691 0.515303,-0.048691 1.915144,-0.087236 3.885065,-0.4098079 0.298227,-0.048691 0.004,-0.1237539 L 6.9563966,6.9288127 A 0.3246007,0.32662945 30.1 0 0 6.645997,7.0119919 Q 5.6458217,8.0040523 5.1366041,9.4525828 a 0.27388184,0.27591059 9.1 0 0 0.2637384,0.3672046 l 2.6231789,-0.048691 a 0.08520768,0.05274762 1.8 0 0 0.077093,-0.044629 Q 8.1087286,9.6879191 8.0214928,9.6777762 7.5143046,9.6229993 7.159272,9.2923123 6.9990005,9.1442123 6.9807422,8.955539 6.9482798,8.6329664 7.2627391,8.6025355 7.4311254,8.5883405 7.729352,8.7019455 Z m 1.827908,4.6783076 a 0.33474446,0.33880198 85.1 0 1 0.284026,-0.332715 l 5.8245527,-0.927141 a 0.1196965,0.12984027 85.9 0 0 0.109552,-0.117667 l 0.0061,-1.8908 A 0.09940896,0.10549523 88.3 0 0 15.669918,10.01252 L 5.382105,10.570427 a 0.15418533,0.15418533 0 0 0 -0.1480995,0.154186 v 6.662429 a 0.14404156,0.14404156 0 0 0 0.1501281,0.144041 L 9.468016,17.370812 A 0.13998405,0.13592653 88.3 0 0 9.5978563,17.228799 Z M 19.778147,10.641433 16.708641,10.302632 a 0.11361024,0.10955274 9.1 0 0 -0.123753,0.08521 q -0.152157,0.718179 -0.08724,1.448531 a 0.10143772,0.10143772 0 0 0 0.109554,0.09332 l 3.221661,-0.288083 a 0.10143772,0.14404156 86.8 0 0 0.133898,-0.107524 l -0.01623,-0.736438 a 0.1907029,0.15824284 3 0 0 -0.168389,-0.156215 z m 0.215049,7.893884 q 0.002,-0.07709 -0.05072,-0.135926 0.148098,-0.05072 0.152156,-0.363147 0.02637,-2.732733 -0.04058,-5.591248 a 0.09940896,0.09738021 86.1 0 0 -0.107525,-0.09535 q -4.842636,0.507188 -9.579777,1.371437 a 0.1196965,0.115639 85.4 0 0 -0.09738,0.117669 l 0.08724,6.53056 a 0.20896169,0.20693295 85.4 0 0 0.239394,0.204904 q 4.595128,-0.722236 9.165912,-1.507365 0.215048,-0.03651 0.30837,-0.121724 0.198819,-0.18056 -0.07709,-0.40981 z"
       id="path1016"
       style="strokeWidth:0.202875;fill:#ffffff" />
    <path
       fill="#ffffff"
       d="m 7.2627624,8.6025355 q -0.3144578,0.030434 -0.2819969,0.353003 0.018257,0.1886743 0.1785299,0.3367738 0.355032,0.3306864 0.8622202,0.3854634 0.087236,0.010143 0.079122,0.048691 a 0.08520768,0.05274762 1.8 0 1 -0.077093,0.044629 L 5.4003653,9.8197869 A 0.27388184,0.27591059 9.1 0 1 5.1366269,9.4525807 Q 5.6458446,8.0040503 6.6460199,7.0119903 a 0.3246007,0.32662945 30.1 0 1 0.3103996,-0.08318 l 8.3604975,2.1443934 q 0.294169,0.075067 -0.004,0.1237539 -1.96992,0.3225722 -3.885064,0.409808 -0.02435,0 -0.515304,0.048691 Q 10.374922,9.710234 9.8575893,9.5134444 8.7924941,9.1076931 7.7294271,8.7019429 7.4312,8.5883329 7.2628136,8.602534 Z"
       id="path1026"
       style="strokeWidth:0.202875;fill:none" />
    <path
       fill="#ffffff"
       d="m 9.5572833,13.380252 0.04058,3.848547 A 0.13998405,0.13592653 88.3 0 1 9.4680165,17.370812 L 5.3841351,17.531083 A 0.14404156,0.14404156 0 0 1 5.2340045,17.387042 V 10.724613 A 0.15418533,0.15418533 0 0 1 5.382104,10.570427 L 15.669917,10.01252 a 0.09940896,0.10549523 88.3 0 1 0.111582,0.09941 l -0.0061,1.8908 a 0.1196965,0.12984027 85.9 0 1 -0.109553,0.117667 l -5.8245537,0.927141 a 0.33474446,0.33880198 85.1 0 0 -0.284026,0.332715 z M 7.8328419,16.52685 q 0.6329712,-0.377348 1.564169,-1.633147 0.091295,-0.121726 0.020291,-0.192732 a 0.11766775,0.16635786 55.4 0 0 -0.1765022,-0.002 q -0.9332269,0.52139 -1.5093926,1.412013 -0.06898,0.107524 -0.1014385,0.210991 -0.125782,0.401693 0.2028764,0.204904 z"
       id="path1036"
       style="strokeWidth:0.202875;fill:none" />
    <path
       fill="#fbfdfb"
       d="m 19.778147,10.641433 a 0.1907029,0.15824284 3 0 1 0.168387,0.156215 l 0.01623,0.736438 a 0.10143772,0.14404156 86.8 0 1 -0.133898,0.107524 l -3.221661,0.288083 a 0.10143772,0.10143772 0 0 1 -0.109554,-0.09332 q -0.06492,-0.730352 0.08724,-1.448531 a 0.11361024,0.10955274 9.1 0 1 0.123754,-0.08521 z"
       id="path1042"
       style="strokeWidth:0.202875;fill:none" />
    <path
       fill="#ffffff"
       d="m 19.942477,18.399391 q -0.08318,-0.06695 -0.253594,-0.05884 -2.868659,0.121725 -5.173325,0.393577 a 0.28605437,0.24547927 14.4 0 0 -0.172444,0.08521 q -0.326629,0.373291 0.37532,0.332717 3.039074,-0.174474 5.033339,-0.495017 0.07709,-0.01217 0.241423,-0.121725 0.27591,0.229249 0.07709,0.409808 -0.09332,0.08521 -0.30837,0.121726 -4.570783,0.785128 -9.165912,1.507363 a 0.20896169,0.20693295 85.4 0 1 -0.239393,-0.2049 l -0.08723,-6.53056 a 0.1196965,0.115639 85.4 0 1 0.09738,-0.117668 q 4.737141,-0.864249 9.579778,-1.371438 a 0.09940896,0.09738021 86.1 0 1 0.107524,0.09535 q 0.06695,2.858514 0.04058,5.591247 -0.004,0.312427 -0.152156,0.363147 z m -6.230813,-0.234728 a 0.91293944,1.0995848 79.4 0 0 -1.248759,-0.695091 0.91293944,1.0995848 79.4 0 0 -0.912878,1.099625 0.91293944,1.0995848 79.4 0 0 1.248759,0.695092 0.91293944,1.0995848 79.4 0 0 0.912878,-1.099626 z"
       id="path1054"
       style="strokeWidth:0.202875;fill:none" />
    <path
       fill="#35a839"
       d="M 7.8328419,16.52685 Q 7.504184,16.723639 7.629966,16.321946 7.662418,16.218479 7.7314044,16.110956 8.3075702,15.220332 9.240797,14.698942 a 0.11766775,0.16635786 55.4 0 1 0.1765023,0.002 q 0.071003,0.071 -0.020291,0.192731 -0.9311977,1.255798 -1.564169,1.633147 z"
       id="path1090"
       style="strokeWidth:0.202875;fill:#ffffff" />
    <path
       fill="#41af3f"
       d="m 13.711664,18.164663 a 0.91293944,1.0995848 79.4 0 1 -0.912878,1.099626 0.91293944,1.0995848 79.4 0 1 -1.248759,-0.695092 0.91293944,1.0995848 79.4 0 1 0.912878,-1.099625 0.91293944,1.0995848 79.4 0 1 1.248759,0.695091 z m -0.707527,-0.233915 q -0.728324,-0.133898 -0.985975,0.545736 a 0.26170931,0.26373806 13.5 0 0 0.217077,0.355031 q 1.174648,0.127812 0.872363,-0.809473 a 0.13389779,0.13389779 0 0 0 -0.103465,-0.09129 z"
       id="path1128"
       style="strokeWidth:0.202875;fill:#ffffff" />
    <path
       fill="#ecfbec"
       d="m 13.004137,17.930748 a 0.13389779,0.13389779 0 0 1 0.103465,0.09129 q 0.302285,0.937285 -0.872363,0.809473 A 0.26170931,0.26373806 13.5 0 1 12.018162,18.47648 q 0.257651,-0.679634 0.985975,-0.545736 z"
       id="path1138"
       style="strokeWidth:0.202875;fill:none" />
    <path
       fill="#35a839"
       d="m 19.942477,18.399391 q 0.05274,0.05883 0.05072,0.135926 -0.164329,0.109553 -0.241422,0.121725 -1.994265,0.320543 -5.033339,0.495016 -0.701949,0.04058 -0.375319,-0.332716 a 0.28605437,0.24547927 14.4 0 1 0.172443,-0.08521 q 2.304665,-0.271852 5.173324,-0.393577 0.170416,-0.0081 0.253594,0.05883 z"
       id="path1144"
       style="strokeWidth:0.202875;fill:#ffffff" />
  </g>
</svg>
