<?xml version="1.0" encoding="UTF-8" standalone="no"?>
<!-- Created with Inkscape (http://www.inkscape.org/) -->

<svg
   width="100"
   height="100"
   viewBox="0 0 26.458333 26.458334"
   version="1.1"
   id="svg40691"
   sodipodi:docname="support-collect.svg"
   inkscape:version="1.1.2 (b8e25be833, 2022-02-05)"
   xmlns:inkscape="http://www.inkscape.org/namespaces/inkscape"
   xmlns:sodipodi="http://sodipodi.sourceforge.net/DTD/sodipodi-0.dtd"
   xmlns="http://www.w3.org/2000/svg"
   xmlns:svg="http://www.w3.org/2000/svg">
  <sodipodi:namedview
     id="namedview40693"
     pagecolor="#ffffff"
     bordercolor="#666666"
     borderopacity="1.0"
     inkscape:pageshadow="2"
     inkscape:pageopacity="0.0"
     inkscape:pagecheckerboard="0"
     inkscape:document-units="mm"
     showgrid="false"
     units="px"
     inkscape:zoom="4.0718557"
     inkscape:cx="104.00663"
     inkscape:cy="61.028685"
     inkscape:window-width="1920"
     inkscape:window-height="1001"
     inkscape:window-x="-9"
     inkscape:window-y="-9"
     inkscape:window-maximized="1"
     inkscape:current-layer="layer1" />
  <defs
     id="defs40688" />
  <g
     inkscape:label="Warstwa 1"
     inkscape:groupmode="layer"
     id="layer1">
    <path
       fill="#ffffff"
       d="M 5.9328999,97.20202 A 16.867187,16.867187 0 0 1 -10.93429,114.06921 16.867187,16.867187 0 0 1 -27.80147,97.20202 16.867187,16.867187 0 0 1 -10.93429,80.33484 16.867187,16.867187 0 0 1 5.9328999,97.20202 Z M -18.31087,91.02929 q 0.6694,0.53711 1.64042,0.53182 0.69585,-0.003 0.72231,-0.003 2.39183,0.10583 4.78631,0.0159 0.94457,-0.0344 1.4340399,-0.28046 0.73819,-0.36777 1.07421,-1.09009 0.59796,-1.29381 -0.11906,-2.3442 -0.4736,-0.69586 -1.3255599,-1.04246 -0.81756,-0.33602 -1.73831,-0.24077 a 0.28839583,0.2936875 77.2 0 1 -0.30428,-0.18786 q -0.41804,-1.13771 -1.35731,-1.68275 -0.9181,-0.53446 -1.98966,-0.39423 -1.07157,0.14023 -1.78859,1.00807 -0.16669,0.19843 -0.44714,0.87312 -0.1958,0.46831 -0.52652,0.84667 -0.65617,0.75141 -0.65882,0.75671 -1.19062,1.8071 0.59796,3.2332 z M -2.5840401,90.4353 a 0.70379166,0.78316666 46.3 0 0 -1.05243,0.0323 0.70379166,0.78316666 46.3 0 0 -0.08,1.04989 0.70379166,0.78316666 46.3 0 0 1.05243,-0.0323 0.70379166,0.78316666 46.3 0 0 0.08,-1.0499 z M -22.01239,95.78915 q -0.77523,0.2196 -0.3175,1.11125 0.9816,1.91558 5.56154,11.30564 0.45773,0.93927 0.55298,1.04511 0.4154,0.45244 1.22767,0.41539 1.09537,-0.0476 6.2891399,-0.0635 0.0132,0 1.30969,0.0529 0.73554,0.0291 1.53988,-0.0741 a 0.67997916,0.69320832 10.3 0 0 0.52387,-0.37042 q 2.83104,-5.56948 5.56683,-11.23685 0.36248,-0.75142 0.53711,-1.24355 0.15875,-0.45243 -0.0423,-0.6985 -0.25136,-0.30691 -0.84667,-0.17462 a 0.31220833,0.31220833 0 0 1 -0.37306,-0.36777 q 0.16933,-0.83873 -0.65088,-1.21444 -1.64042,-0.75406 -3.17235,0.15346 -0.53182,0.3175 -1.10332,0.71173 a 0.25135416,0.254 39.2 0 1 -0.24606,0.0265 q -0.70114,-0.29104 -1.39435,-0.27517 -0.65352,0.0132 -0.66146,0.0132 -4.5323099,-0.14288 -8.8079799,0.0794 -0.48948,0.0238 -0.89165,-0.254 -1.40493,-0.97102 -2.9157,-0.77787 -0.69321,0.0873 -1.06892,0.50006 -0.42598,0.46831 -0.48154,1.17475 a 0.17727083,0.1825625 83.9 0 1 -0.13494,0.1614 z"
       id="path63800"
       style="strokeWidth:0.264583" />
    <ellipse
       fill="#44bb3f"
       cx="9.5341225"
       cy="-1.152824"
       transform="matrix(0.74497262,0.66709504,-0.62620089,0.77966175,0,0)"
       rx="1.5860952"
       ry="0.60891676"
       id="ellipse410"
       style="fill:#ffffff;strokeWidth:0.242488" />
    <ellipse
       fill="#44bb3f"
       cx="-7.4506693"
       cy="-19.563992"
       transform="matrix(-0.59618797,0.80284488,-0.77026575,-0.63772304,0,0)"
       rx="1.193381"
       ry="0.63120145"
       id="ellipse418"
       style="fill:#ffffff;strokeWidth:0.242483" />
    <path
       fill="#44bb3f"
       d="m 20.494813,16.220376 1.546939,1.54376 q 0.294768,0.293814 0.115543,0.754452 -0.719223,1.850023 -2.14118,2.845999 -0.438616,0.308751 -0.818273,0.01 l -1.612964,-1.267378 a 0.20736712,0.17569476 56.923484 0 0 -0.2028,-0.0249 q -1.796898,1.023322 -3.676331,1.07063 -1.846419,0.04731 -3.598513,-0.856537 Q 8.2843968,19.357695 7.1407022,17.597309 6.0205884,15.871783 5.9380536,13.822564 5.7965661,10.291832 8.7135777,7.9114524 11.156604,5.9170118 14.25755,6.2929927 q 3.039635,0.3685105 4.985096,2.8260796 1.653049,2.0890567 1.676631,4.7682307 0.0094,1.088102 -0.464553,2.143836 a 0.17159477,0.15305648 49.046131 0 0 0.04011,0.189236 z M 8.8196932,18.07289 q 2.0775158,1.979499 4.6714638,2.049216 1.815764,0.05229 3.666898,-1.14039 a 0.49031975,0.5180768 5.0249466 0 1 0.51879,0.0024 l 0.690932,0.458148 a 0.24288779,0.25646356 0 0 0 0.294768,-0.02988 l 1.601173,-1.561191 a 0.14490018,0.13149301 67.472953 0 0 0.01176,-0.186745 L 19.431266,16.4145 a 0.31867155,0.37003448 27.780678 0 1 -0.01886,-0.356062 Q 19.879315,15.000254 19.902897,14.322993 19.987737,11.932676 18.82758,10.1698 17.731047,8.5065213 15.759647,7.7097413 13.729294,6.8880616 11.632913,7.4980961 9.5365313,8.1056414 8.2702138,9.6568723 6.6996959,11.581595 6.9991794,14.504781 q 0.209874,2.036769 1.8204797,3.568081 z m 10.7200778,2.335561 a 0.2500445,0.28084762 29.902333 0 0 0.304197,-0.02241 q 0.881941,-0.749471 1.433748,-1.845044 a 0.24887821,0.32319072 38.960675 0 0 0.02834,-0.231564 q -0.07781,-0.263934 -0.31835,-0.211645 a 0.21759417,0.30783582 12.422968 0 0 -0.169786,0.144416 q -0.613119,1.127943 -1.723795,1.680709 -0.132056,0.06474 -0.02593,0.141927 z"
       id="path424"
       style="fill:#ffffff;strokeWidth:0.242313" />
    <ellipse
       fill="#44bb3f"
       cx="8.5855989"
       cy="3.4566469"
       transform="matrix(0.85009724,0.52662576,-0.48569936,0.87412592,0,0)"
       rx="1.25371"
       ry="0.66826594"
       id="ellipse426"
       style="fill:#ffffff;strokeWidth:0.24245" />
    <path
       fill="#ffffff"
       d="M 8.8196932,18.07289 Q 7.2090874,16.541577 6.999214,14.504808 6.6997312,11.581622 8.2702484,9.6569003 9.5365663,8.1056689 11.632946,7.4981238 q 2.096383,-0.6100346 4.126736,0.2116451 1.971399,0.79678 3.067932,2.4600591 1.160204,1.762876 1.075311,4.153215 -0.02362,0.677263 -0.490493,1.735486 a 0.31867155,0.37003448 27.780678 0 0 0.01887,0.356062 l 0.84421,1.249948 a 0.14490018,0.13149301 67.472953 0 1 -0.01177,0.186744 l -1.601168,1.561192 a 0.24288779,0.25646356 0 0 1 -0.294768,0.02989 l -0.690933,-0.458148 a 0.49031975,0.5180768 5.0249466 0 0 -0.518789,-0.0024 q -1.851135,1.192681 -3.666899,1.140392 -2.593951,-0.06974 -4.6714669,-2.049246 z m 5.2657138,-6.765161 q 0.320706,-0.126987 0.650844,-0.216625 0.412674,-0.114536 0.589534,-0.318711 0.426823,-0.495499 -0.308915,-0.8241707 -0.09433,-0.04233 -0.228739,-0.0249 -0.525864,0.06972 -0.700366,-0.380961 Q 13.962784,9.2186696 13.717538,8.987106 13.059619,8.3671109 12.894549,9.2435692 12.845029,9.5124833 12.753061,9.7714353 a 0.31086054,0.33762713 78.889863 0 1 -0.148563,0.174296 q -0.896091,0.5079477 -1.471474,1.4267347 a 0.32778061,0.34610131 0 0 0 0.202798,0.527866 q 1.478551,0.346101 1.405448,1.491473 -0.04244,0.652363 -0.655561,0.739511 -1.129547,0.159356 -1.082383,0.639915 0.0283,0.286342 0.596608,0.622483 0.952685,0.562726 1.638902,1.426735 0.438613,0.550276 0.662637,-0.129478 0.221663,-0.667302 0.169785,-1.543761 a 0.30870788,0.29009216 88.947417 0 1 0.226381,-0.321201 q 0.660277,-0.156867 1.181426,-0.582645 0.620188,-0.510438 0.193366,-0.903848 -0.127339,-0.117027 -0.624906,-0.316222 -0.351362,-0.139436 -0.674426,-0.336141 -0.318348,-0.196706 -0.405599,-0.502967 -0.09668,-0.348592 -0.02122,-0.712124 a 0.22549929,0.22747011 39.743528 0 1 0.13913,-0.164335 z"
       id="path430"
       style="fill:none;strokeWidth:0.242313" />
    <path
       fill="#37c643"
       d="m 20.982949,9.7266183 q -0.992778,-0.7220814 0.294767,-1.5313113 0.50228,-0.3137325 1.009285,-0.00996 0.540008,0.3212024 -0.191016,0.9113173 -0.419749,0.338632 -0.865434,0.634935 a 0.23545847,0.22268658 84.537103 0 1 -0.247602,-0.005 z"
       id="path434"
       style="fill:#ffffff;strokeWidth:0.242313" />
    <path
       fill="#35b33c"
       d="m 13.946277,11.472064 q -0.07546,0.363531 0.02122,0.712123 0.08726,0.306262 0.405599,0.502968 0.323064,0.196704 0.674426,0.336141 0.497567,0.199195 0.624906,0.316221 0.426822,0.393411 -0.193367,0.903848 -0.521149,0.425779 -1.181425,0.582646 a 0.30870788,0.29009216 88.947417 0 0 -0.226381,0.321201 q 0.05188,0.876459 -0.169785,1.543761 -0.224024,0.679754 -0.662637,0.129478 -0.686217,-0.864009 -1.638902,-1.426735 -0.568311,-0.336142 -0.596608,-0.622484 -0.04717,-0.480558 1.082383,-0.639914 0.613115,-0.08714 0.655561,-0.739511 0.0731,-1.145371 -1.405448,-1.491473 a 0.32778061,0.34610131 0 0 1 -0.202796,-0.527867 q 0.575384,-0.918787 1.471475,-1.4267337 a 0.31086054,0.33762713 78.889863 0 0 0.148561,-0.174297 q 0.09197,-0.258952 0.141488,-0.5278653 0.16507,-0.8764588 0.822989,-0.2564638 0.245246,0.2315636 0.370227,0.5552561 0.174502,0.450678 0.700366,0.38096 0.134414,-0.01743 0.228739,0.0249 0.735738,0.3286717 0.308915,0.8241707 -0.176859,0.204175 -0.589533,0.318712 -0.330139,0.08964 -0.650845,0.216624 a 0.22549929,0.22747011 39.743528 0 0 -0.13913,0.164336 z"
       id="path436"
       style="fill:#ffffff;stroke:#ffffff;strokeWidth:0.242313" />
    <ellipse
       fill="#44bb3f"
       cx="6.0898013"
       cy="9.1169329"
       transform="matrix(0.96933954,0.24572516,-0.2217116,0.97511228,0,0)"
       rx="1.2040426"
       ry="0.66542643"
       id="ellipse440"
       style="fill:#ffffff;strokeWidth:0.242351" />
    <rect
       fill="#31b331"
       x="18.833916"
       y="16.720068"
       transform="matrix(0.97023316,-0.24217271,0.21846883,0.97584393,0,0)"
       width="2.199723"
       height="1.2415688"
       rx="0.55347866"
       id="rect448"
       style="fill:#ffffff;strokeWidth:0.24235" />
    <rect
       fill="#3dbc39"
       x="-1.6842119"
       y="13.532384"
       transform="matrix(0.97067516,-0.24039497,0.21684671,0.97620567,0,0)"
       width="3.467366"
       height="1.0081943"
       rx="0.37843013"
       id="rect452"
       style="fill:#ffffff;strokeWidth:0.242349" />
    <ellipse
       fill="#44bb3f"
       cx="25.485657"
       cy="11.34726"
       transform="matrix(0.98442425,0.17580927,-0.15816778,0.98741225,0,0)"
       rx="1.2069304"
       ry="0.64894146"
       id="ellipse472"
       style="fill:#ffffff;strokeWidth:0.242333" />
    <rect
       fill="#31b331"
       x="-3.8270829"
       y="16.365871"
       transform="matrix(0.91836831,-0.39572673,0.36050205,0.93275842,0,0)"
       width="2.7768009"
       height="1.1369134"
       rx="0.4374412"
       id="rect474"
       style="fill:#ffffff;strokeWidth:0.242401" />
    <path
       fill="#f7fff6"
       d="m 19.539771,20.408451 -0.471627,-0.343612 q -0.106117,-0.07718 0.02593,-0.141926 1.11068,-0.552766 1.723798,-1.680709 a 0.21759417,0.30783582 12.422968 0 1 0.169786,-0.144416 q 0.240534,-0.05229 0.31835,0.211645 a 0.24887821,0.32319072 38.960675 0 1 -0.02834,0.231564 q -0.551807,1.095573 -1.433747,1.845044 a 0.2500445,0.28084762 29.902333 0 1 -0.304198,0.02241 z"
       id="path476"
       style="fill:none;strokeWidth:0.242313" />
    <path
       fill="#44bb3f"
       d="m 4.9146235,20.381061 q -0.7286633,-0.590116 0.087255,-1.20264 0.5541618,-0.41582 0.8748673,-0.612524 0.2711855,-0.166826 0.5187898,-0.107067 0.3702276,0.08963 0.2711862,0.475577 -0.047171,0.179276 -0.2334565,0.41333 -0.3796588,0.478068 -0.8347787,0.978546 -0.3183484,0.351081 -0.6838594,0.05478 z"
       id="path478"
       style="fill:#ffffff;strokeWidth:0.242313" />
    <rect
       fill="#3dbc39"
       x="17.48415"
       y="12.011271"
       transform="matrix(0.83172722,0.55518451,-0.51368167,0.85798085,0,0)"
       width="1.1263586"
       height="2.3303747"
       rx="0.52962822"
       id="rect482"
       style="fill:#ffffff;strokeWidth:0.24246" />
  </g>
</svg>
