<?xml version="1.0" encoding="UTF-8" standalone="no"?>
<!-- Created with Inkscape (http://www.inkscape.org/) -->

<svg
   width="100"
   height="100"
   viewBox="0 0 26.458333 26.458334"
   version="1.1"
   id="svg40691"
   sodipodi:docname="support-volunteer.svg"
   inkscape:version="1.1.2 (b8e25be833, 2022-02-05)"
   xmlns:inkscape="http://www.inkscape.org/namespaces/inkscape"
   xmlns:sodipodi="http://sodipodi.sourceforge.net/DTD/sodipodi-0.dtd"
   xmlns="http://www.w3.org/2000/svg"
   xmlns:svg="http://www.w3.org/2000/svg">
  <sodipodi:namedview
     id="namedview40693"
     pagecolor="#ffffff"
     bordercolor="#666666"
     borderopacity="1.0"
     inkscape:pageshadow="2"
     inkscape:pageopacity="0.0"
     inkscape:pagecheckerboard="0"
     inkscape:document-units="mm"
     showgrid="false"
     units="px"
     inkscape:zoom="2.8792368"
     inkscape:cx="133.19502"
     inkscape:cy="127.63799"
     inkscape:window-width="1920"
     inkscape:window-height="1001"
     inkscape:window-x="-9"
     inkscape:window-y="-9"
     inkscape:window-maximized="1"
     inkscape:current-layer="layer1" />
  <defs
     id="defs40688" />
  <g
     inkscape:label="Warstwa 1"
     inkscape:groupmode="layer"
     id="layer1">
    <path
       fill="#30ac22"
       d="m 12.989465,22.952037 q -0.33596,-0.241616 -0.485533,-0.642008 -1.06771,-2.885581 -3.1732177,-5.133757 -1.389865,-1.48421 -2.238973,-2.765924 -0.508542,-0.768567 -0.812288,-1.718923 -0.287637,-0.897429 -0.315251,-1.852386 -0.101251,-3.5137818 2.848764,-5.6607098 2.5151037,-1.827074 5.3983837,-1.396768 1.861591,0.278433 3.357307,1.428984 1.435887,1.106829 2.176842,2.777429 1.461199,3.2974788 -0.715643,6.7100128 -0.577576,0.904332 -2.540415,3.242251 -1.143647,1.364554 -1.640685,2.181444 -0.713343,1.173563 -1.226489,2.457576 -0.257722,0.642007 -0.632802,0.372779 z M 7.9845693,6.9892962 q -1.808665,2.33792 -0.885923,5.3661688 0.407294,1.33694 1.086119,2.227466 0.469425,0.614394 2.5128027,2.954614 1.445092,1.654492 2.331015,3.736989 0.18639,0.43721 0.287638,-0.02761 0.04143,-0.195593 0.225508,-0.533855 1.116034,-2.041077 2.680783,-3.762301 1.318532,-1.449694 2.335619,-3.122595 1.173561,-1.932925 0.89973,-3.9693998 -0.257723,-1.926025 -1.71432,-3.414838 -1.562448,-1.596964 -3.847441,-1.875398 -1.700515,-0.2094 -3.219242,0.39579 -1.6268777,0.644309 -2.6922887,2.024969 z"
       id="path37819"
       style="stroke-width:0.230109;fill:#ffffff" />
    <circle
       fill="#3daf32"
       cx="22.603456"
       cy="4.8814902"
       r="1.111432"
       id="circle37821"
       style="stroke-width:0.230109;fill:#ffffff" />
    <circle
       fill="#33b028"
       cx="2.8209016"
       cy="7.6520133"
       r="0.87902075"
       id="circle37839"
       style="stroke-width:0.230109;fill:#ffffff" />
    <path
       fill="#30ac22"
       d="m 13.274802,9.4652822 q 0.809987,-0.920441 1.801762,-0.676524 0.867515,0.211702 1.366855,1.000978 0.646609,1.0239908 -0.174884,2.2619838 -0.296843,0.444112 -0.849107,0.934247 -0.991775,0.876719 -1.985851,1.967442 a 0.24621785,0.24621785 0 0 1 -0.354369,0.0093 q -1.27481,-1.265605 -2.565728,-2.593341 -1.2679067,-1.304724 -0.453317,-2.5818348 0.499338,-0.782375 1.320833,-0.957258 0.968763,-0.2071 1.732728,0.635103 a 0.10815178,0.10815178 0 0 0 0.161078,0 z m 0.03681,1.5118228 A 0.59138307,0.58908197 88.3 0 1 13.017071,10.698673 Q 12.6581,9.9807292 12.195578,9.7276082 q -0.538457,-0.294542 -1.10683,0.115055 -0.441811,0.3152498 -0.506242,0.8951278 -0.05062,0.471726 0.246218,0.858311 0.227809,0.299142 0.635105,0.685728 0.844504,0.800783 1.686707,1.603867 a 0.11735618,0.11735618 0 0 0 0.163378,-0.0023 q 0.697234,-0.69033 1.40137,-1.371457 0.545362,-0.526951 0.860612,-0.971064 0.407295,-0.568372 0.278434,-1.102228 -0.115055,-0.4763268 -0.561469,-0.7271468 -0.404994,-0.225509 -0.842204,-0.128863 -0.71104,0.158777 -0.860611,1.0124858 -0.08284,0.467123 -0.278434,0.381981 z"
       id="path37851"
       style="stroke-width:0.230109;fill:#ffffff" />
    <ellipse
       fill="#33b028"
       cx="24.532846"
       cy="-13.880971"
       transform="rotate(61.9)"
       rx="0.94345158"
       ry="0.87671965"
       id="ellipse37885"
       style="stroke-width:0.230109;fill:#ffffff" />
    <circle
       fill="#30ac22"
       cx="3.3133371"
       cy="16.04413"
       r="0.9204405"
       id="circle37887"
       style="stroke-width:0.230109;fill:#ffffff" />
    <path
       fill="#ffffff"
       d="M 5.9328999,97.20202 A 16.867187,16.867187 0 0 1 -10.93429,114.06921 16.867187,16.867187 0 0 1 -27.80147,97.20202 16.867187,16.867187 0 0 1 -10.93429,80.33484 16.867187,16.867187 0 0 1 5.9328999,97.20202 Z M -18.31087,91.02929 q 0.6694,0.53711 1.64042,0.53182 0.69585,-0.003 0.72231,-0.003 2.39183,0.10583 4.78631,0.0159 0.94457,-0.0344 1.4340399,-0.28046 0.73819,-0.36777 1.07421,-1.09009 0.59796,-1.29381 -0.11906,-2.3442 -0.4736,-0.69586 -1.3255599,-1.04246 -0.81756,-0.33602 -1.73831,-0.24077 a 0.28839583,0.2936875 77.2 0 1 -0.30428,-0.18786 q -0.41804,-1.13771 -1.35731,-1.68275 -0.9181,-0.53446 -1.98966,-0.39423 -1.07157,0.14023 -1.78859,1.00807 -0.16669,0.19843 -0.44714,0.87312 -0.1958,0.46831 -0.52652,0.84667 -0.65617,0.75141 -0.65882,0.75671 -1.19062,1.8071 0.59796,3.2332 z M -2.5840401,90.4353 a 0.70379166,0.78316666 46.3 0 0 -1.05243,0.0323 0.70379166,0.78316666 46.3 0 0 -0.08,1.04989 0.70379166,0.78316666 46.3 0 0 1.05243,-0.0323 0.70379166,0.78316666 46.3 0 0 0.08,-1.0499 z M -22.01239,95.78915 q -0.77523,0.2196 -0.3175,1.11125 0.9816,1.91558 5.56154,11.30564 0.45773,0.93927 0.55298,1.04511 0.4154,0.45244 1.22767,0.41539 1.09537,-0.0476 6.2891399,-0.0635 0.0132,0 1.30969,0.0529 0.73554,0.0291 1.53988,-0.0741 a 0.67997916,0.69320832 10.3 0 0 0.52387,-0.37042 q 2.83104,-5.56948 5.56683,-11.23685 0.36248,-0.75142 0.53711,-1.24355 0.15875,-0.45243 -0.0423,-0.6985 -0.25136,-0.30691 -0.84667,-0.17462 a 0.31220833,0.31220833 0 0 1 -0.37306,-0.36777 q 0.16933,-0.83873 -0.65088,-1.21444 -1.64042,-0.75406 -3.17235,0.15346 -0.53182,0.3175 -1.10332,0.71173 a 0.25135416,0.254 39.2 0 1 -0.24606,0.0265 q -0.70114,-0.29104 -1.39435,-0.27517 -0.65352,0.0132 -0.66146,0.0132 -4.5323099,-0.14288 -8.8079799,0.0794 -0.48948,0.0238 -0.89165,-0.254 -1.40493,-0.97102 -2.9157,-0.77787 -0.69321,0.0873 -1.06892,0.50006 -0.42598,0.46831 -0.48154,1.17475 a 0.17727083,0.1825625 83.9 0 1 -0.13494,0.1614 z"
       id="path63800"
       style="stroke-width:0.264583" />
  </g>
</svg>
