<?xml version="1.0" encoding="UTF-8" standalone="no"?>
<!-- Created with Inkscape (http://www.inkscape.org/) -->

<svg
   width="100"
   height="100"
   viewBox="0 0 26.458333 26.458334"
   version="1.1"
   id="svg40691"
   xmlns="http://www.w3.org/2000/svg"
   xmlns:svg="http://www.w3.org/2000/svg">
  <defs
     id="defs40688" />
  <g
     id="layer1">
    <path
       fill="#37ad37"
       d="m 9.3770716,18.595859 -6.024562,0.18256 a 0.42597916,0.42862499 88.8 0 1 -0.441854,-0.42068 L 2.7783636,7.3907594 q -0.0079,-0.72231 0.322792,-1.37319 0.624416,-1.22502 1.74625,-2.5744 0.66675,-0.8016834 1.651,-0.5291604 5.3419374,1.4737304 10.7103334,2.8469104 0.611187,0.15611 0.902229,0.46832 0.3175,0.33866 0.486833,0.79375 a 0.23283333,0.22489583 85 0 0 0.17198,0.14816 q 1.645708,0.30427 3.309937,0.48684 0.873125,0.0953 1.553104,0.43391 0.513292,0.254 0.513292,0.8255 V 20.212469 a 0.47095833,0.47095833 0 0 1 -0.396875,0.46566 l -13.422312,2.14842 q -0.7143757,0.11642 -0.7328967,-0.59531 l -0.08467,-3.50573 A 0.13229166,0.127 88.3 0 0 9.3770686,18.595859 Z M 7.0937176,6.2689194 q 1.386417,0.52917 2.7754787,1.05834 0.6746887,0.25664 1.3758347,0.18521 0.640291,-0.0635 0.672041,-0.0635 2.497667,-0.11377 5.066771,-0.53446 0.388938,-0.0635 0.0053,-0.1614 L 6.0856636,3.9564694 a 0.42333333,0.42597916 30.1 0 0 -0.404813,0.10848 q -1.304396,1.29381 -1.9685,3.18293 a 0.3571875,0.35983333 9.1 0 0 0.343959,0.4789 l 3.421062,-0.0635 a 0.111125,0.06879167 1.8 0 0 0.100542,-0.0582 q 0.01058,-0.0503 -0.103188,-0.0635 -0.661458,-0.0714 -1.124479,-0.50271 -0.209021,-0.19314 -0.232833,-0.43921 -0.04233,-0.42068 0.367771,-0.46037 0.219604,-0.0185 0.608541,0.12964 z m 2.3838957,6.1012996 a 0.43656249,0.44185416 85.1 0 1 0.370417,-0.43392 l 7.5961877,-1.20915 a 0.15610416,0.16933333 85.9 0 0 0.142875,-0.15345 l 0.0079,-2.4659196 a 0.12964583,0.13758333 88.3 0 0 -0.145521,-0.12965 l -13.4170214,0.72761 a 0.20108333,0.20108333 0 0 0 -0.193146,0.20108 v 8.6889196 a 0.18785416,0.18785416 0 0 0 0.195792,0.18785 l 5.326062,-0.20902 a 0.1825625,0.17727083 88.3 0 0 0.1693337,-0.18521 z M 22.807322,8.7983394 18.804176,8.3564894 a 0.14816666,0.142875 9.1 0 0 -0.161395,0.11112 q -0.198438,0.93663 -0.113771,1.8891296 a 0.13229166,0.13229166 0 0 0 0.142875,0.12171 l 4.201583,-0.37571 a 0.13229166,0.18785416 86.8 0 0 0.174625,-0.1402296 l -0.02117,-0.96044 a 0.24870833,0.206375 3 0 0 -0.219604,-0.20373 z m 0.280459,10.2949396 q 0.0026,-0.10054 -0.06615,-0.17727 0.193146,-0.0661 0.198437,-0.47361 0.0344,-3.56393 -0.05292,-7.29191 a 0.12964583,0.127 86.1 0 0 -0.14023,-0.12436 q -6.315604,0.66146 -12.493624,1.78859 a 0.15610416,0.1508125 85.4 0 0 -0.127,0.15345 l 0.11377,8.51694 a 0.27252083,0.269875 85.4 0 0 0.312209,0.26723 q 5.992812,-0.94192 11.953875,-1.96585 0.280458,-0.0476 0.402166,-0.15875 0.259292,-0.23548 -0.100541,-0.53446 z"
       id="path40501"
       style="stroke-width:0.264583;fill:none;stroke:#ffffff" />
    <path
       fill="#ffffff"
       d="m 6.4851766,6.1392794 q -0.410105,0.0397 -0.367771,0.46037 0.02381,0.24607 0.232833,0.43921 0.463021,0.43127 1.124479,0.50271 0.113771,0.0132 0.103188,0.0635 a 0.111125,0.06879167 1.8 0 1 -0.100542,0.0582 l -3.421062,0.0635 a 0.3571875,0.35983333 9.1 0 1 -0.343959,-0.4789 q 0.664104,-1.88912 1.9685,-3.18293 a 0.42333333,0.42597916 30.1 0 1 0.404813,-0.10848 l 10.9034794,2.79664 q 0.383646,0.0979 -0.0053,0.1614 -2.569104,0.42069 -5.066771,0.53446 -0.03175,0 -0.672041,0.0635 -0.701146,0.0714 -1.3758347,-0.18521 -1.3890617,-0.52917 -2.7754787,-1.05834 -0.388937,-0.14816 -0.608541,-0.12964 z"
       id="path40511"
       style="stroke-width:0.264583;fill:none;stroke:#ffffff" />
    <path
       fill="#ffffff"
       d="m 9.4776133,12.370219 0.05292,5.01914 a 0.1825625,0.17727083 88.3 0 1 -0.1693337,0.18521 l -5.326062,0.20902 a 0.18785416,0.18785416 0 0 1 -0.195795,-0.18785 V 8.9068194 a 0.20108333,0.20108333 0 0 1 0.193146,-0.20108 L 17.44951,7.9781294 a 0.12964583,0.13758333 88.3 0 1 0.145521,0.12965 l -0.0079,2.4659196 a 0.15610416,0.16933333 85.9 0 1 -0.142875,0.15345 l -7.5961877,1.20915 a 0.43656249,0.44185416 85.1 0 0 -0.370417,0.43392 z m -2.2489577,4.10368 q 0.8255,-0.49212 2.039937,-2.12989 0.119063,-0.15875 0.02646,-0.25136 a 0.15345833,0.21695833 55.4 0 0 -0.230188,-0.003 q -1.217083,0.67998 -1.9685,1.8415 -0.08996,0.14023 -0.132292,0.27516 -0.164041,0.52388 0.264584,0.26723 z"
       id="path40521"
       style="stroke-width:0.264583;fill:none;stroke:#ffffff" />
    <path
       fill="#fbfdfb"
       d="m 22.807322,8.7983394 a 0.24870833,0.206375 3 0 1 0.219604,0.20373 l 0.02117,0.96044 a 0.13229166,0.18785416 86.8 0 1 -0.174625,0.1402296 l -4.201583,0.37571 a 0.13229166,0.13229166 0 0 1 -0.142875,-0.12171 q -0.08467,-0.9524996 0.113771,-1.8891296 a 0.14816666,0.142875 9.1 0 1 0.161395,-0.11112 z"
       id="path40527"
       style="stroke-width:0.264583;fill:none;stroke:#ffffff" />
    <path
       fill="#ffffff"
       d="m 23.021635,18.916009 q -0.108479,-0.0873 -0.330729,-0.0767 -3.741209,0.15875 -6.746875,0.51329 a 0.3730625,0.32014583 14.4 0 0 -0.224896,0.11113 q -0.425979,0.48683 0.489479,0.43391 3.963458,-0.22754 6.564312,-0.64558 0.100542,-0.0159 0.314855,-0.15875 0.359833,0.29898 0.100541,0.53446 -0.121708,0.11112 -0.402166,0.15875 -5.961063,1.02393 -11.953875,1.96585 a 0.27252083,0.269875 85.4 0 1 -0.312209,-0.26723 l -0.11377,-8.51694 a 0.15610416,0.1508125 85.4 0 1 0.127,-0.15345 q 6.17802,-1.12713 12.493624,-1.78859 a 0.12964583,0.127 86.1 0 1 0.14023,0.12436 q 0.08731,3.72798 0.05292,7.29191 -0.0053,0.40746 -0.198437,0.47361 z m -8.126016,-0.30612 a 1.190625,1.4340416 79.4 0 0 -1.62859,-0.90652 1.190625,1.4340416 79.4 0 0 -1.190545,1.43409 1.190625,1.4340416 79.4 0 0 1.62859,0.90652 1.190625,1.4340416 79.4 0 0 1.190545,-1.43409 z"
       id="path40539"
       style="stroke-width:0.264583;fill:none;stroke:#ffffff" />
    <path
       fill="#35a839"
       d="m 7.2286556,16.473899 q -0.428625,0.25665 -0.264584,-0.26723 0.04233,-0.13493 0.132292,-0.27516 0.751417,-1.16152 1.9685,-1.8415 a 0.15345833,0.21695833 55.4 0 1 0.230188,0.003 q 0.0926,0.0926 -0.02646,0.25136 -1.214437,1.63777 -2.039937,2.12989 z"
       id="path40575"
       style="stroke-width:0.264583;fill:none;stroke:#ffffff" />
    <path
       fill="#41af3f"
       d="m 14.895619,18.609889 a 1.190625,1.4340416 79.4 0 1 -1.190545,1.43409 1.190625,1.4340416 79.4 0 1 -1.62859,-0.90652 1.190625,1.4340416 79.4 0 1 1.190545,-1.43409 1.190625,1.4340416 79.4 0 1 1.62859,0.90652 z m -0.922734,-0.30507 q -0.949854,-0.17462 -1.285875,0.71173 a 0.3413125,0.34395833 13.5 0 0 0.283104,0.46302 q 1.531938,0.16669 1.137708,-1.05569 a 0.174625,0.174625 0 0 0 -0.134937,-0.11906 z"
       id="path40613"
       style="stroke-width:0.264583;fill:none;stroke:#ffffff" />
    <path
       fill="#ecfbec"
       d="m 13.972885,18.304819 a 0.174625,0.174625 0 0 1 0.134937,0.11906 q 0.39423,1.22238 -1.137708,1.05569 a 0.3413125,0.34395833 13.5 0 1 -0.283104,-0.46302 q 0.336021,-0.88635 1.285875,-0.71173 z"
       id="path40623"
       style="stroke-width:0.264583;fill:none;stroke:#ffffff" />
    <path
       fill="#35a839"
       d="m 23.021635,18.916009 q 0.06879,0.0767 0.06615,0.17727 -0.214313,0.14287 -0.314855,0.15875 -2.600854,0.41804 -6.564312,0.64558 -0.915458,0.0529 -0.489479,-0.43391 a 0.3730625,0.32014583 14.4 0 1 0.224896,-0.11113 q 3.005666,-0.35454 6.746875,-0.51329 0.22225,-0.0106 0.330729,0.0767 z"
       id="path40629"
       style="stroke-width:0.264583;fill:none;stroke:#ffffff" />
  </g>
</svg>
