<?xml version="1.0" encoding="UTF-8" standalone="no"?>
<!-- Created with Inkscape (http://www.inkscape.org/) -->

<svg
   width="100"
   height="100"
   viewBox="0 0 26.458333 26.458334"
   version="1.1"
   id="svg40691"
   sodipodi:docname="support-clothes.svg"
   inkscape:version="1.1.2 (b8e25be833, 2022-02-05)"
   xmlns:inkscape="http://www.inkscape.org/namespaces/inkscape"
   xmlns:sodipodi="http://sodipodi.sourceforge.net/DTD/sodipodi-0.dtd"
   xmlns="http://www.w3.org/2000/svg"
   xmlns:svg="http://www.w3.org/2000/svg">
  <sodipodi:namedview
     id="namedview65837"
     pagecolor="#ffffff"
     bordercolor="#666666"
     borderopacity="1.0"
     inkscape:pageshadow="2"
     inkscape:pageopacity="0.0"
     inkscape:pagecheckerboard="0"
     showgrid="false"
     inkscape:zoom="5.7134228"
     inkscape:cx="49.970046"
     inkscape:cy="49.970046"
     inkscape:window-width="1920"
     inkscape:window-height="1001"
     inkscape:window-x="-9"
     inkscape:window-y="-9"
     inkscape:window-maximized="1"
     inkscape:current-layer="svg40691" />
  <defs
     id="defs40688" />
  <path
     fill="#33b028"
     d="M 8.4227943,16.680105 Q 6.885803,16.60267 5.7336472,16.041843 5.2807631,15.821268 5.3628924,15.321452 5.9565689,11.707765 6.780209,8.446059 7.3504195,6.17929 7.5240646,5.754565 8.0614259,4.43111 9.1478786,3.417401 9.7556363,2.851882 10.525303,3.178052 q 3.280478,1.389157 6.563302,-0.04928 0.384834,-0.168952 0.732123,0.0704 0.987898,0.680499 1.607387,1.661358 0.431766,0.687539 0.809561,2.111896 0.940966,3.538598 1.752873,8.114372 0.154872,0.87057 -0.619489,1.109918 -1.123998,0.349635 -2.29962,0.422379 a 0.11967409,0.11967409 0 0 0 -0.110286,0.126713 q 0.173644,2.977775 0.375448,5.953201 0.05162,0.769669 -0.701619,0.734469 -0.309744,-0.01408 -0.328518,-0.01408 -5.021618,0.03989 -10.0432354,-0.061 A 0.11967409,0.11967409 0 0 1 8.145901,23.241057 q -0.016431,-1.46894 0.1454863,-2.930842 0.194764,-1.74818 0.2463873,-3.508093 a 0.11967409,0.11732753 2.3 0 0 -0.1149803,-0.12202 z m 1.513525,-4.808083 Q 9.2769392,17.182267 8.9273022,22.462007 a 0.12671375,0.12436719 2.5 0 0 0.1243681,0.133754 l 9.4073197,0.100904 a 0.10794134,0.10794134 0 0 0 0.107943,-0.114981 Q 18.285347,17.201042 17.581382,11.78051 a 0.11967409,0.12202063 81.5 0 1 0.103247,-0.136099 l 2.668027,-0.4083 a 0.11498099,0.10794134 79 0 0 0.08683,-0.136101 Q 19.552488,7.113221 19.116029,5.876588 18.68661,4.658729 17.398355,3.88202 A 0.22761542,0.23465508 49.5 0 0 17.191857,3.86794 Q 13.723656,5.334535 10.194444,3.91956 A 0.32147746,0.32382401 38.6 0 0 9.8846993,3.95475 Q 9.15023,4.473337 8.6949987,5.221887 8.3993336,5.709969 8.0872422,6.817542 7.5240701,8.823842 6.9984424,10.940431 a 0.16895165,0.17364475 13.4 0 0 0.126713,0.21119 l 2.7079209,0.584291 a 0.12906028,0.12436719 8.8 0 1 0.103246,0.13611 z m -0.7565517,0.54602 a 0.06335687,0.06335687 0 0 0 -0.051512,-0.07331 L 6.8397613,11.94532 a 0.06335687,0.06335687 0 0 0 -0.073306,0.05152 l -0.5930437,3.398063 a 0.06335687,0.06335687 0 0 0 0.051513,0.07331 l 2.2884974,0.399408 a 0.06335687,0.06335687 0 0 0 0.073309,-0.05152 z m 9.8658604,3.452502 q 1.084107,-0.07274 1.949984,-0.563172 a 0.19007061,0.19007061 0 0 0 0.09387,-0.17599 q -0.107947,-1.534645 -0.49278,-3.024704 a 0.12671375,0.12906028 78.5 0 0 -0.145485,-0.09387 l -1.879588,0.286279 a 0.11732753,0.12671375 82 0 0 -0.107943,0.131407 l 0.438804,3.327408 a 0.13140684,0.13844648 84.6 0 0 0.14314,0.112634 z"
     id="path37943"
     style="fill:#ffffff;stroke-width:0.234655" />
  <path
     fill="#277b25"
     d="M 9.5420983,7.559063 Q 9.6946243,8.192632 9.0047386,8.033066 A 0.1478327,0.1431396 8 0 1 8.892105,7.88758 Q 8.906193,7.364298 9.3942662,7.425309 a 0.1759913,0.1712982 86.5 0 1 0.1478321,0.133754 z"
     id="path37971"
     style="fill:#ffffff;stroke-width:0.234655" />
  <circle
     fill="#277b25"
     cx="18.233719"
     cy="7.7796335"
     r="0.34024987"
     id="circle37975"
     style="fill:#ffffff;stroke-width:0.234655" />
  <rect
     fill="#30ac22"
     x="11.341994"
     y="7.8129563"
     transform="rotate(-0.2)"
     width="4.4443674"
     height="0.50216192"
     rx="0.23230852"
     id="rect37977"
     style="fill:#ffffff;stroke-width:0.234655" />
  <path
     fill="#277b25"
     d="M 8.5143101,9.638105 A 0.22996197,0.22761542 18.4 0 1 8.3547444,9.321322 Q 8.4673784,9.074934 8.70438,9.203995 8.8428266,9.276735 8.9179162,9.426916 9.0892142,9.769513 8.5143101,9.638105 Z"
     id="path37983"
     style="fill:#ffffff;stroke-width:0.234655" />
  <ellipse
     fill="#16a109"
     cx="14.468308"
     cy="15.522695"
     transform="rotate(-20.000001)"
     rx="0.4481912"
     ry="0.26281369"
     id="ellipse37985"
     style="fill:#ffffff;stroke-width:0.234655" />
  <rect
     fill="#30ac22"
     x="11.456468"
     y="9.7078466"
     transform="rotate(0.2)"
     width="4.3880501"
     height="0.46461704"
     rx="0.22526886"
     id="rect37989"
     style="fill:#ffffff;stroke-width:0.234655" />
  <rect
     fill="#30ac22"
     x="11.348985"
     y="11.912472"
     transform="rotate(-0.40000107)"
     width="4.2660294"
     height="0.45523083"
     rx="0.22292233"
     id="rect38005"
     style="fill:#ffffff;stroke-width:0.234655" />
  <rect
     fill="#277b25"
     x="11.419633"
     y="13.914555"
     transform="rotate(-0.40000107)"
     width="4.2472572"
     height="0.41768602"
     rx="0.11967408"
     id="rect38029"
     style="fill:#ffffff;stroke-width:0.234655" />
  <rect
     fill="#277b25"
     x="11.648037"
     y="15.720305"
     transform="rotate(0.5000009)"
     width="4.284802"
     height="0.41768602"
     rx="0.20180336"
     id="rect38035"
     style="fill:#ffffff;stroke-width:0.234655" />
  <rect
     fill="#277b25"
     x="11.668007"
     y="17.736017"
     transform="rotate(0.5000009)"
     width="4.2566428"
     height="0.42707226"
     rx="0.20414992"
     id="rect38039"
     style="fill:#ffffff;stroke-width:0.234655" />
</svg>
